<svg class="main-logo" width="120" height="40" viewBox="0 0 120 40" xmlns="http://www.w3.org/2000/svg" fill="white">
  <path fill-rule="evenodd" clip-rule="evenodd" d="M66.4709 34.6119C66.4709 35.0292 66.8545 35.342 67.2583 35.2365C73.8748 33.5089 78.7565 27.507 78.7565 20.3685C78.7565 11.8807 71.8552 5 63.3421 5C54.829 5 47.9277 11.8807 47.9277 20.3685C47.9277 27.671 53.0362 33.784 59.8845 35.3488C60.2837 35.44 60.6539 35.1289 60.6539 34.7194V31.0843C60.6539 30.7882 60.4556 30.5302 60.1737 30.4396C58.0052 29.7433 56.2514 28.5099 54.9122 26.7397C53.4856 24.8405 52.7723 22.6399 52.7723 20.1378C52.7723 16.8319 54.0181 14.1238 56.5096 12.0136C58.5793 10.2652 60.9352 9.39098 63.5774 9.39098C66.9832 9.39098 69.731 10.6219 71.8207 13.0838C73.5085 15.0734 74.3524 17.3695 74.3524 19.972C74.3524 22.5243 73.604 24.8103 72.107 26.8301C70.8513 28.5359 69.1323 29.7391 66.9501 30.4395C66.6685 30.5299 66.4709 30.7877 66.4709 31.0834V34.6119ZM66.275 22.4548C66.275 22.0909 65.9799 21.7958 65.6159 21.7958H61.5239C61.1599 21.7958 60.8649 22.0909 60.8649 22.4548V22.7038C60.8649 23.261 60.2335 23.539 59.9149 23.0819C59.3426 22.2608 59.0565 21.2895 59.0565 20.168C59.0565 18.8918 59.5035 17.7865 60.3977 16.852C61.2918 15.9175 62.3518 15.4502 63.5774 15.4502C64.7931 15.4502 65.848 15.9175 66.7421 16.852C67.6363 17.7865 68.0833 18.8918 68.0833 20.168C68.0833 21.2555 67.8005 22.2134 67.2348 23.0416C66.9171 23.5067 66.275 23.2309 66.275 22.6676V22.4548Z" fill="#40BCFF"></path>
  <path d="M4.91797 14.5678C4.91797 14.2039 5.21302 13.9088 5.57697 13.9088H10.9659C11.3299 13.9088 11.6249 14.2039 11.6249 14.5678V23.3967C11.6249 23.81 11.717 24.1365 11.9011 24.3761C12.0851 24.6097 12.3108 24.7265 12.578 24.7265C12.8511 24.7265 13.1243 24.6007 13.3974 24.3491C13.6765 24.0915 13.8161 23.7741 13.8161 23.3967V14.5678C13.8161 14.2039 14.1111 13.9088 14.4751 13.9088H19.9442C20.3082 13.9088 20.6032 14.2039 20.6032 14.5678V23.6573C20.6032 25.1607 20.2202 26.4635 19.4542 27.5657C18.6941 28.6678 17.6965 29.5004 16.4614 30.0634C15.2323 30.6265 13.9378 30.908 12.578 30.908C11.6101 30.908 10.666 30.7552 9.74556 30.4498C8.82517 30.1383 7.99979 29.6771 7.26942 29.0661C6.54498 28.4492 5.97196 27.6854 5.55037 26.775C5.12877 25.8645 4.91797 24.8253 4.91797 23.6573V14.5678Z"></path>
  <path d="M22.8423 29.9566C22.4783 29.9566 22.1833 29.6616 22.1833 29.2976V19.4624C22.1833 18.1386 22.5485 17.0066 23.2789 16.0662C24.0152 15.1198 24.986 14.407 26.1915 13.9278C27.3969 13.4486 28.6735 13.209 30.0215 13.209C31.3991 13.209 32.7084 13.4606 33.9495 13.9637C35.1964 14.4609 36.2029 15.2066 36.9689 16.2009C37.7409 17.1952 38.1268 18.3692 38.1268 19.723V29.2976C38.1268 29.6616 37.8318 29.9566 37.4678 29.9566H31.7404C31.3764 29.9566 31.0814 29.6616 31.0814 29.2976V20.1632C31.0814 19.8038 30.9804 19.5373 30.7786 19.3636C30.5826 19.1839 30.357 19.094 30.1016 19.094C29.8166 19.094 29.5435 19.2018 29.2822 19.4175C29.0209 19.6271 28.8903 19.8757 28.8903 20.1632V29.2976C28.8903 29.6616 28.5952 29.9566 28.2313 29.9566H22.8423Z"></path>
  <path d="M40.357 29.9566C39.9931 29.9566 39.698 29.6616 39.698 29.2976V14.0567C39.698 13.6927 39.9931 13.3977 40.357 13.3977H46.0132C46.3772 13.3977 46.6722 13.6927 46.6722 14.0567V29.2976C46.6722 29.6616 46.3772 29.9566 46.0132 29.9566H40.357Z"></path>
  <path d="M79.9767 14.5678C79.9767 14.2039 80.2717 13.9088 80.6357 13.9088H86.0246C86.3886 13.9088 86.6836 14.2039 86.6836 14.5678V23.3967C86.6836 23.81 86.7757 24.1365 86.9598 24.3761C87.1438 24.6097 87.3695 24.7265 87.6367 24.7265C87.9099 24.7265 88.183 24.6007 88.4561 24.3491C88.7352 24.0915 88.8748 23.7741 88.8748 23.3967V14.5678C88.8748 14.2039 89.1698 13.9088 89.5338 13.9088H95.0029C95.3669 13.9088 95.6619 14.2039 95.6619 14.5678V23.6573C95.6619 25.1607 95.2789 26.4635 94.5129 27.5657C93.7528 28.6678 92.7553 29.5004 91.5202 30.0634C90.291 30.6265 88.9965 30.908 87.6367 30.908C86.6688 30.908 85.7247 30.7552 84.8043 30.4498C83.8839 30.1383 83.0585 29.6771 82.3281 29.0661C81.6037 28.4492 81.0307 27.6854 80.6091 26.775C80.1875 25.8645 79.9767 24.8253 79.9767 23.6573V14.5678Z"></path>
  <path d="M114.017 18.9236C114.151 19.2272 114.023 19.5795 113.733 19.7394L106.497 23.7228C106.182 23.8959 105.787 23.7855 105.608 23.4745L104.545 21.6304C104.36 21.3092 104.476 20.8986 104.802 20.722L106.83 19.6232C107.216 19.4138 107.276 18.8859 106.855 18.7585C106.655 18.6979 106.439 18.6675 106.209 18.6675C105.474 18.6675 104.74 18.9998 104.005 19.6387C103.853 19.7665 103.169 20.2776 102.966 20.8143C102.84 21.121 102.865 21.4021 102.89 21.581C102.916 21.811 103.6 23.6766 104.182 24.3411C104.79 25.0311 105.474 25.3634 106.285 25.3634C107.464 25.3634 108.744 24.7086 110.072 23.399C110.336 23.1382 110.762 23.1232 111.029 23.3813L113.844 26.1048C114.074 26.3265 114.114 26.6825 113.917 26.9337C113.379 27.6214 112.709 28.2395 111.935 28.788C110.972 29.4525 109.959 29.938 108.869 30.2958C107.78 30.6281 106.691 30.807 105.601 30.807C104.512 30.807 103.498 30.6281 102.51 30.2958C101.522 29.9636 100.635 29.4525 99.8246 28.7369C99.0139 28.0468 98.3805 27.1524 97.8738 26.079C97.3924 25.0056 97.0377 23.7789 96.9617 22.3733C96.9617 22.2966 96.9617 22.271 96.9617 22.1432C96.9617 22.0155 96.9617 21.9388 96.9617 21.9388C96.9617 20.0732 97.3924 18.4631 98.2285 17.1341C99.0646 15.8052 100.154 14.7829 101.446 14.1185C102.764 13.454 104.081 13.0962 105.424 13.0962C109.448 13.0962 112.313 15.0387 114.017 18.9236Z"></path>
</svg>
