<svg width="48" height="48" viewBox="0 0 48 48" fill="none" xmlns="http://www.w3.org/2000/svg">
<circle cx="24" cy="24" r="24" fill="black"/>
<path d="M39.3156 14.5076C38.7979 14.0995 38.1807 13.542 37.0559 13.4026C36.0007 13.2633 34.9256 13.9701 34.1989 14.4379C33.4722 14.9058 32.0985 16.2795 31.5311 16.6976C30.9637 17.1157 29.5103 17.5039 27.171 18.9075C24.8316 20.3111 15.6535 26.2042 15.6535 26.2042L18.0426 26.2341L7.39121 31.7191H8.45635L6.92334 32.8838C6.92334 32.8838 8.27716 33.2421 9.41199 32.5254V32.8539C9.41199 32.8539 22.0941 27.8567 24.543 29.1508L23.0498 29.5888C23.1792 29.5888 25.5882 29.7481 25.5882 29.7481C25.6467 30.2469 25.8143 30.7268 26.0793 31.1535C26.3443 31.5801 26.7 31.9432 27.1212 32.2168C28.5746 33.1725 28.6044 33.7 28.6044 33.7C28.6044 33.7 27.8479 34.0086 27.8479 34.3969C27.8479 34.3969 28.9628 34.0584 29.9981 34.0883C30.6551 34.1132 31.3068 34.2168 31.9392 34.3969C31.9392 34.3969 31.8596 33.9788 30.8542 33.7C29.8487 33.4213 28.8533 32.3263 28.3655 31.729C28.0667 31.3489 27.872 30.8975 27.8005 30.4193C27.7289 29.9411 27.783 29.4525 27.9574 29.0015C28.3058 28.0956 29.5202 27.5979 32.0288 26.3038C34.9853 24.7708 35.6622 23.636 36.0803 22.75C36.4984 21.864 37.1156 20.1021 37.464 19.2758C37.902 18.2107 38.4395 17.6433 38.8875 17.3048C39.3355 16.9664 41.3264 16.2198 41.3264 16.2198C41.3264 16.2198 39.8033 14.8958 39.3156 14.5076Z" fill="white"/>
</svg>
