<svg width="48" height="48" viewBox="0 0 48 48" fill="none" xmlns="http://www.w3.org/2000/svg">
<path fill-rule="evenodd" clip-rule="evenodd" d="M40.2378 23.4119C40.2223 19.6831 39.1282 16.3633 36.9539 13.4332L36.9528 13.4316C35.229 11.0928 32.9051 9.41345 29.9592 8.39506C29.0578 8.08339 28.3882 7.24877 28.384 6.24988L28.367 2.17402C28.3613 0.788736 29.6504 -0.325616 31.0548 0.0870188C40.8156 2.95519 47.9554 12.0006 48 22.7611L47.9879 25.2314C47.9478 35.992 40.8118 45.0404 31.0522 47.9128C29.6482 48.3259 28.3585 47.2122 28.3637 45.8269L28.3788 41.751C28.3825 40.7521 29.0518 39.9172 29.9532 39.6052C32.8986 38.5855 35.2218 36.9053 36.9446 34.5656L36.9457 34.5641C39.1187 31.6331 40.2115 28.3127 40.2253 24.5839L40.2378 23.4119ZM7.7622 23.412C7.77767 19.6832 8.87183 16.3633 11.0461 13.4333L11.0472 13.4317C12.771 11.0928 15.0949 9.41352 18.0408 8.39513C18.9422 8.08346 19.6118 7.24884 19.616 6.24995L19.633 2.17409C19.6387 0.788808 18.3496 -0.325544 16.9452 0.0870907C7.18445 2.95526 0.0446308 12.0007 0 22.7611L0.0121526 25.2316C0.0522143 35.9921 7.18819 45.0404 16.9478 47.9128C18.3518 48.326 19.6415 47.2122 19.6363 45.8269L19.6212 41.7511C19.6175 40.7522 18.9482 39.9173 18.0468 39.6053C15.1014 38.5856 12.7782 36.9053 11.0554 34.5656L11.0543 34.5642C8.88127 31.6331 7.78852 28.3128 7.77463 24.584L7.7622 23.412ZM24 15.2726C21.59 15.2726 19.6363 17.2264 19.6363 19.6363V28.3636C19.6363 30.7735 21.59 32.7272 24 32.7272C26.41 32.7272 28.3637 30.7735 28.3637 28.3636V19.6363C28.3637 17.2264 26.41 15.2726 24 15.2726Z" fill="#5942C8"/>
</svg>
