<svg width="48" height="48" viewBox="0 0 48 48" fill="none" xmlns="http://www.w3.org/2000/svg">
<g clip-path="url(#clip0_1662_70)">
<path d="M24 15C23.0717 15 22.1815 15.3687 21.5251 16.0251C20.8687 16.6815 20.5 17.5717 20.5 18.5V29.5C20.5 30.4283 20.8687 31.3185 21.5251 31.9749C22.1815 32.6313 23.0717 33 24 33C24.9283 33 25.8185 32.6313 26.4749 31.9749C27.1313 31.3185 27.5 30.4283 27.5 29.5V18.5C27.5 17.5717 27.1313 16.6815 26.4749 16.0251C25.8185 15.3687 24.9283 15 24 15V15Z" fill="#0CB6B8"/>
<path d="M27.5 1.44V6.58C27.4939 6.80979 27.5671 7.03468 27.7073 7.21682C27.8476 7.39896 28.0463 7.52721 28.27 7.58C31.9102 8.52915 35.1327 10.6589 37.4329 13.6357C39.733 16.6125 40.9808 20.2681 40.9808 24.03C40.9808 27.7919 39.733 31.4475 37.4329 34.4243C35.1327 37.4011 31.9102 39.5308 28.27 40.48C28.0463 40.5328 27.8476 40.661 27.7073 40.8432C27.5671 41.0253 27.4939 41.2502 27.5 41.48V46.62C27.4979 46.7669 27.5281 46.9125 27.5887 47.0464C27.6492 47.1803 27.7385 47.2993 27.8502 47.3948C27.9619 47.4902 28.0933 47.5599 28.235 47.5988C28.3767 47.6378 28.5252 47.645 28.67 47.62C34.1171 46.5379 39.0204 43.6002 42.544 39.3077C46.0677 35.0152 47.9936 29.6335 47.9936 24.08C47.9936 18.5265 46.0677 13.1448 42.544 8.85228C39.0204 4.55976 34.1171 1.6221 28.67 0.540001C28.5333 0.515894 28.393 0.520533 28.2581 0.553622C28.1233 0.586712 27.9968 0.647526 27.8867 0.732193C27.7766 0.816859 27.6854 0.92352 27.6188 1.04538C27.5522 1.16725 27.5118 1.30164 27.5 1.44V1.44Z" fill="#0CB6B8"/>
<path d="M20.5 41.42C20.5061 41.1902 20.4329 40.9653 20.2927 40.7832C20.1524 40.601 19.9537 40.4728 19.73 40.42C16.0898 39.4708 12.8673 37.3411 10.5671 34.3643C8.26702 31.3875 7.01923 27.7319 7.01923 23.97C7.01923 20.2081 8.26702 16.5525 10.5671 13.5757C12.8673 10.5989 16.0898 8.46915 19.73 7.52C19.9537 7.46721 20.1524 7.33895 20.2927 7.15682C20.4329 6.97468 20.5061 6.74979 20.5 6.52V1.44C20.5021 1.29307 20.4719 1.14747 20.4113 1.01356C20.3508 0.879652 20.2615 0.76073 20.1498 0.665253C20.0381 0.569777 19.9067 0.500094 19.765 0.461161C19.6233 0.422229 19.4748 0.415004 19.33 0.440001C13.8829 1.5221 8.97965 4.45976 5.45599 8.75228C1.93233 13.0448 0.00636292 18.4265 0.00636292 23.98C0.00636292 29.5335 1.93233 34.9152 5.45599 39.2077C8.97965 43.5002 13.8829 46.4379 19.33 47.52C19.4748 47.545 19.6233 47.5378 19.765 47.4988C19.9067 47.4599 20.0381 47.3902 20.1498 47.2947C20.2615 47.1993 20.3508 47.0803 20.4113 46.9464C20.4719 46.8125 20.5021 46.6669 20.5 46.52V41.42Z" fill="#0CB6B8"/>
</g>
<defs>
<clipPath id="clip0_1662_70">
<rect width="48" height="48" fill="white"/>
</clipPath>
</defs>
</svg>
