<svg width="48" height="48" viewBox="0 0 48 48" fill="none" xmlns="http://www.w3.org/2000/svg">
<circle cx="24" cy="24" r="24" fill="#E10679"/>
<path d="M25.0071 7.36133C22.8561 7.36088 20.7412 7.90743 18.8658 8.94841C16.9903 9.98939 15.4173 11.4898 14.2981 13.3053C13.1789 15.1209 12.5511 17.1905 12.4751 19.3152C12.3991 21.4399 12.8774 23.5481 13.864 25.4373C14.017 25.7291 14.281 25.949 14.5979 26.0484C14.9149 26.1479 15.2588 26.1189 15.554 25.9677C15.8493 25.8165 16.0717 25.5556 16.1724 25.2423C16.273 24.929 16.2436 24.5891 16.0906 24.2973C15.354 22.8935 14.972 21.3345 14.9773 19.7532C14.9773 17.7925 15.5656 15.8758 16.6677 14.2455C17.7697 12.6153 19.3362 11.3446 21.1689 10.5943C23.0016 9.84399 25.0182 9.64767 26.9638 10.0302C28.9094 10.4127 30.6965 11.3569 32.0992 12.7433C33.5019 14.1297 34.4571 15.8961 34.8441 17.8191C35.2311 19.7422 35.0325 21.7354 34.2734 23.5469C33.5142 25.3583 32.2287 26.9066 30.5793 27.9959C28.9299 29.0852 26.9908 29.6666 25.0071 29.6666H23.2995C22.0349 29.6653 20.7996 30.0429 19.7565 30.7497L22.462 20.053C22.5339 19.7373 22.478 19.4062 22.3061 19.1307C22.1342 18.8551 21.8601 18.657 21.5424 18.5787C21.2246 18.5003 20.8885 18.548 20.6058 18.7114C20.3232 18.8749 20.1164 19.1411 20.0298 19.4533L15.015 39.2802C14.9389 39.5822 14.9807 39.9015 15.1319 40.1745C15.2831 40.4475 15.5327 40.6542 15.8311 40.7536C15.9599 40.7972 16.095 40.8193 16.2311 40.8193C16.4764 40.8193 16.7163 40.7481 16.9211 40.6146C17.1259 40.4811 17.2866 40.2912 17.3832 40.0683L19.8418 34.3978C20.1318 33.7291 20.614 33.1591 21.2287 32.7587C21.8433 32.3582 22.5634 32.1448 23.2995 32.145H25.0071C28.3321 32.145 31.521 30.8394 33.8722 28.5155C36.2234 26.1916 37.5443 23.0397 37.5443 19.7532C37.5443 16.4666 36.2234 13.3147 33.8722 10.9908C31.521 8.66689 28.3321 7.36133 25.0071 7.36133Z" fill="white"/>
</svg>
