<svg width="48" height="48" viewBox="0 0 48 48" fill="none" xmlns="http://www.w3.org/2000/svg">
<g clip-path="url(#clip0_1662_69)">
<path d="M46.39 19.57L41.57 21.33C41.3597 21.407 41.1814 21.5523 41.0636 21.7427C40.9457 21.9331 40.8951 22.1575 40.92 22.38C41.2768 26.1271 40.3798 29.8867 38.3698 33.0692C36.3599 36.2517 33.3505 38.6771 29.8136 39.9651C26.2768 41.2531 22.4125 41.3308 18.8267 40.1861C15.2409 39.0415 12.1364 36.7391 10 33.64C9.87663 33.4536 9.69436 33.3139 9.48228 33.2432C9.2702 33.1725 9.04055 33.1749 8.83 33.25L4 35C3.86308 35.0504 3.73884 35.1301 3.63599 35.2335C3.53314 35.337 3.45417 35.4617 3.40462 35.5989C3.35507 35.7361 3.33615 35.8825 3.34917 36.0278C3.36219 36.1731 3.40684 36.3138 3.48 36.44C6.36007 41.1876 10.7973 44.7896 16.0356 46.6322C21.2738 48.4749 26.989 48.444 32.2071 46.5451C37.4251 44.6461 41.8233 40.9964 44.652 36.218C47.4807 31.4396 48.565 25.8282 47.72 20.34C47.6952 20.1955 47.639 20.0581 47.5552 19.9378C47.4715 19.8174 47.3623 19.7169 47.2354 19.6434C47.1085 19.5699 46.967 19.5253 46.8209 19.5126C46.6748 19.4999 46.5277 19.5195 46.39 19.57Z" fill="#5D59FF"/>
<path d="M6.43 26.67C6.64026 26.593 6.81859 26.4477 6.93644 26.2573C7.0543 26.0669 7.10485 25.8425 7.08 25.62C6.72323 21.8729 7.62016 18.1133 9.63015 14.9308C11.6401 11.7483 14.6495 9.32291 18.1864 8.03491C21.7232 6.74691 25.5875 6.66916 29.1733 7.81385C32.7591 8.95854 35.8636 11.2609 38 14.36C38.1234 14.5464 38.3056 14.6861 38.5177 14.7568C38.7298 14.8275 38.9595 14.8251 39.17 14.75L44 13C44.1369 12.9496 44.2612 12.8699 44.364 12.7665C44.4669 12.663 44.5458 12.5383 44.5954 12.4011C44.6449 12.2639 44.6639 12.1175 44.6508 11.9722C44.6378 11.8269 44.5932 11.6862 44.52 11.56C41.6399 6.81239 37.2027 3.21037 31.9644 1.36776C26.7262 -0.474861 21.011 -0.44405 15.7929 1.45494C10.5748 3.35393 6.1767 7.00358 3.34798 11.782C0.519262 16.5604 -0.564986 22.1718 0.280003 27.66C0.304762 27.8045 0.361008 27.9419 0.444755 28.0622C0.528502 28.1826 0.6377 28.2831 0.76461 28.3566C0.891521 28.4301 1.03304 28.4747 1.17913 28.4874C1.32523 28.5001 1.47233 28.4805 1.61 28.43L6.43 26.67Z" fill="#5D59FF"/>
<path d="M30 18H18L15 22L24 30L33 22L30 18Z" fill="#5D59FF"/>
</g>
<defs>
<clipPath id="clip0_1662_69">
<rect width="48" height="48" fill="white"/>
</clipPath>
</defs>
</svg>
