<?xml version="1.0" encoding="iso-8859-1"?>
<!-- Generator: Adobe Illustrator 19.0.0, SVG Export Plug-In . SVG Version: 6.00 Build 0)  -->
<svg version="1.1" id="Layer_1" xmlns="http://www.w3.org/2000/svg" xmlns:xlink="http://www.w3.org/1999/xlink" x="0px" y="0px"
	 viewBox="0 0 512 512" style="enable-background:new 0 0 512 512;" xml:space="preserve">
<circle style="fill:#E05B49;" cx="256" cy="256" r="256"/>
<path style="opacity:0.1;enable-background:new    ;" d="M347.525,109.328h-183.04c-5.28,0-9.547,4.267-9.547,9.547v274.24
	c0,2.288,0.837,4.363,2.176,6.005l0,0c0.411,0.501,0.864,0.955,1.365,1.365l111.152,111.147
	c130.512-6.848,235.115-111.435,242-241.931L355.365,113.435C353.637,110.955,350.779,109.328,347.525,109.328z"/>
<path style="fill:#64798A;" d="M347.531,109.333H164.469c-5.269,0-9.541,4.272-9.541,9.536v274.256c0,5.269,4.272,9.536,9.541,9.536
	h183.056c5.269,0,9.541-4.272,9.541-9.536V118.869C357.067,113.605,352.795,109.333,347.531,109.333z"/>
<path style="fill:#D15241;" d="M241.717,220.309h-60.773c-2.832,0-5.131,2.299-5.131,5.131v60.773c0,2.832,2.299,5.131,5.131,5.131
	h60.773c2.832,0,5.131-2.299,5.131-5.131V225.44C246.848,222.603,244.549,220.309,241.717,220.309z"/>
<path style="fill:#31978C;" d="M331.056,220.309h-60.773c-2.832,0-5.131,2.299-5.131,5.131v60.773c0,2.832,2.299,5.131,5.131,5.131
	h60.773c2.832,0,5.131-2.299,5.131-5.131V225.44C336.187,222.603,333.888,220.309,331.056,220.309z"/>
<path style="fill:#D5D6DB;" d="M241.717,309.632h-60.773c-2.832,0-5.131,2.299-5.131,5.131v60.773c0,2.832,2.299,5.131,5.131,5.131
	h60.773c2.832,0,5.131-2.299,5.131-5.131v-60.773C246.848,311.931,244.549,309.632,241.717,309.632z"/>
<path style="fill:#F6C358;" d="M331.056,309.632h-60.773c-2.832,0-5.131,2.299-5.131,5.131v60.773c0,2.832,2.299,5.131,5.131,5.131
	h60.773c2.832,0,5.131-2.299,5.131-5.131v-60.773C336.187,311.931,333.888,309.632,331.056,309.632z"/>
<rect x="175.813" y="132.043" style="fill:#FFFFFF;" width="160.373" height="60.139"/>
<rect x="175.813" y="184.48" style="fill:#EBF0F3;" width="160.373" height="7.707"/>
<path style="fill:#E56353;" d="M241.717,214.597h-60.773c-2.832,0-5.131,2.299-5.131,5.131v60.773c0,2.832,2.299,5.131,5.131,5.131
	h60.773c2.832,0,5.131-2.299,5.131-5.131v-60.773C246.848,216.896,244.549,214.597,241.717,214.597z"/>
<path style="fill:#44C4A1;" d="M331.056,214.597h-60.773c-2.832,0-5.131,2.299-5.131,5.131v60.773c0,2.832,2.299,5.131,5.131,5.131
	h60.773c2.832,0,5.131-2.299,5.131-5.131v-60.773C336.187,216.896,333.888,214.597,331.056,214.597z"/>
<path style="fill:#EBF0F3;" d="M241.717,303.925h-60.773c-2.832,0-5.131,2.299-5.131,5.131v60.773c0,2.832,2.299,5.131,5.131,5.131
	h60.773c2.832,0,5.131-2.299,5.131-5.131v-60.773C246.848,306.219,244.549,303.925,241.717,303.925z"/>
<path style="fill:#FCD462;" d="M331.056,303.925h-60.773c-2.832,0-5.131,2.299-5.131,5.131v60.773c0,2.832,2.299,5.131,5.131,5.131
	h60.773c2.832,0,5.131-2.299,5.131-5.131v-60.773C336.187,306.219,333.888,303.925,331.056,303.925z"/>
<g>
	<polygon style="fill:#FFFFFF;" points="233.856,247.451 214,247.451 214,227.584 208.667,227.584 208.667,247.451 188.8,247.451 
		188.8,252.784 208.667,252.784 208.667,272.645 214,272.645 214,252.784 233.856,252.784 	"/>
	<polygon style="fill:#FFFFFF;" points="314.715,232.304 300.672,246.347 286.624,232.299 282.853,236.069 296.896,250.117 
		282.853,264.16 286.624,267.931 300.672,253.888 314.715,267.931 318.485,264.16 304.443,250.117 318.485,236.075 	"/>
</g>
<rect x="188.8" y="336.8" style="fill:#3A556A;" width="45.056" height="5.333"/>
<g>
	<rect x="278.133" y="327.253" style="fill:#DC8744;" width="45.056" height="5.333"/>
	<rect x="278.133" y="346.293" style="fill:#DC8744;" width="45.056" height="5.333"/>
</g>
<g>
</g>
<g>
</g>
<g>
</g>
<g>
</g>
<g>
</g>
<g>
</g>
<g>
</g>
<g>
</g>
<g>
</g>
<g>
</g>
<g>
</g>
<g>
</g>
<g>
</g>
<g>
</g>
<g>
</g>
</svg>
