<svg width="128" height="128" viewBox="0 0 128 128" fill="none" xmlns="http://www.w3.org/2000/svg">
<path opacity="0.2" d="M88 32H40V56H88V32Z" fill="#15ADFF"/>
<path fill-rule="evenodd" clip-rule="evenodd" d="M108 20C108 15.5817 104.418 12 100 12H28C23.5817 12 20 15.5817 20 20V108C20 112.418 23.5817 116 28 116H100C104.418 116 108 112.418 108 108V20ZM100 20V108H28V20H100ZM50 74C50 77.3137 47.3137 80 44 80C40.6863 80 38 77.3137 38 74C38 70.6863 40.6863 68 44 68C47.3137 68 50 70.6863 50 74ZM64 80C67.3137 80 70 77.3137 70 74C70 70.6863 67.3137 68 64 68C60.6863 68 58 70.6863 58 74C58 77.3137 60.6863 80 64 80ZM90 74C90 77.3137 87.3137 80 84 80C80.6863 80 78 77.3137 78 74C78 70.6863 80.6863 68 84 68C87.3137 68 90 70.6863 90 74ZM44 100C47.3137 100 50 97.3137 50 94C50 90.6863 47.3137 88 44 88C40.6863 88 38 90.6863 38 94C38 97.3137 40.6863 100 44 100ZM70 94C70 97.3137 67.3137 100 64 100C60.6863 100 58 97.3137 58 94C58 90.6863 60.6863 88 64 88C67.3137 88 70 90.6863 70 94ZM84 100C87.3137 100 90 97.3137 90 94C90 90.6863 87.3137 88 84 88C80.6863 88 78 90.6863 78 94C78 97.3137 80.6863 100 84 100ZM40 28C37.7909 28 36 29.7909 36 32V56C36 58.2091 37.7909 60 40 60H88C90.2091 60 92 58.2091 92 56V32C92 29.7909 90.2091 28 88 28H40ZM44 52V36H84V52H44Z" fill="#15ADFF"/>
</svg>
