<svg width="128" height="128" viewBox="0 0 128 128" fill="none" xmlns="http://www.w3.org/2000/svg">
<path opacity="0.2" d="M24 96L104 96C108.418 96 112 92.4183 112 88L112 32C112 27.5817 108.418 24 104 24L24 24C19.5817 24 16 27.5817 16 32L16 88C16 92.4183 19.5817 96 24 96Z" fill="#15ADFF"/>
<path fill-rule="evenodd" clip-rule="evenodd" d="M108 88C108 90.2091 106.209 92 104 92H24C21.7909 92 20 90.2091 20 88V32C20 29.7909 21.7909 28 24 28H104C106.209 28 108 29.7909 108 32V88ZM104 100C110.627 100 116 94.6274 116 88V32C116 25.3726 110.627 20 104 20H24C17.3726 20 12 25.3726 12 32V88C12 94.6274 17.3726 100 24 100H104ZM75.1487 38.1152C75.7275 36.5235 74.9064 34.764 73.3147 34.1852C71.723 33.6064 69.9634 34.4275 69.3846 36.0192L52.8513 81.4859C52.2725 83.0776 53.0936 84.8371 54.6853 85.4159C56.277 85.9947 58.0366 85.1736 58.6154 83.5819L75.1487 38.1152ZM49.4299 51.8231C50.731 50.7388 50.9068 48.8051 49.8225 47.504C48.7383 46.2029 46.8046 46.0271 45.5034 47.1114L33.1034 57.4447C32.4043 58.0273 32 58.8904 32 59.8006C32 60.7107 32.4043 61.5738 33.1034 62.1564L45.5034 72.4898C46.8046 73.574 48.7383 73.3982 49.8225 72.0971C50.9068 70.796 50.731 68.8623 49.4299 67.778L39.857 59.8006L49.4299 51.8231ZM82.4966 47.1114C81.1954 46.0271 79.2617 46.2029 78.1775 47.504C77.0932 48.8051 77.269 50.7388 78.5701 51.8231L88.1431 59.8006L78.5701 67.778C77.269 68.8623 77.0932 70.796 78.1775 72.0971C79.2617 73.3982 81.1954 73.574 82.4966 72.4898L94.8966 62.1564C95.5957 61.5738 96 60.7107 96 59.8006C96 58.8904 95.5957 58.0273 94.8966 57.4447L82.4966 47.1114ZM44 112C44 109.791 45.7909 108 48 108H80C82.2091 108 84 109.791 84 112C84 114.209 82.2091 116 80 116H48C45.7909 116 44 114.209 44 112Z" fill="#15ADFF"/>
</svg>
