<svg width="128" height="128" viewBox="0 0 128 128" fill="none" xmlns="http://www.w3.org/2000/svg">
<path opacity="0.2" d="M104 24H24C21.8783 24 19.8434 24.8429 18.3431 26.3431C16.8429 27.8434 16 29.8783 16 32V88C16 90.1217 16.8429 92.1566 18.3431 93.6569C19.8434 95.1571 21.8783 96 24 96H104C106.122 96 108.157 95.1571 109.657 93.6569C111.157 92.1566 112 90.1217 112 88V32C112 29.8783 111.157 27.8434 109.657 26.3431C108.157 24.8429 106.122 24 104 24ZM56 76V44L80 60L56 76Z" fill="#15ADFF"/>
<path fill-rule="evenodd" clip-rule="evenodd" d="M104 92C106.209 92 108 90.2091 108 88V32C108 29.7909 106.209 28 104 28H24C21.7909 28 20 29.7909 20 32V88C20 90.2091 21.7909 92 24 92H104ZM116 88C116 94.6274 110.627 100 104 100H24C17.3726 100 12 94.6274 12 88V32C12 25.3726 17.3726 20 24 20H104C110.627 20 116 25.3726 116 32V88ZM44 112C44 109.791 45.7909 108 48 108H80C82.2091 108 84 109.791 84 112C84 114.209 82.2091 116 80 116H48C45.7909 116 44 114.209 44 112ZM58.2188 40.6718C56.9914 39.8535 55.4132 39.7772 54.1126 40.4733C52.8119 41.1694 52 42.5248 52 44V76C52 77.4752 52.8119 78.8306 54.1126 79.5267C55.4132 80.2228 56.9914 80.1465 58.2188 79.3282L82.2188 63.3282C83.3316 62.5863 84 61.3374 84 60C84 58.6626 83.3316 57.4137 82.2188 56.6718L58.2188 40.6718ZM72.7889 60L60 68.5259V51.4741L72.7889 60Z" fill="#15ADFF"/>
</svg>
