<svg width="128" height="128" viewBox="0 0 128 128" fill="none" xmlns="http://www.w3.org/2000/svg">
<path opacity="0.2" d="M110.8 74.7C111.63 71.0591 112.032 67.334 112 63.6C111.8 37.15 89.9 15.75 63.5 16C52.2217 16.1189 41.3455 20.2057 32.7795 27.5432C24.2136 34.8808 18.5052 45.0005 16.6558 56.1268C14.8064 67.2531 16.9341 78.6753 22.6657 88.3893C28.3973 98.1034 37.3666 105.489 48 109.25C49.8088 109.902 51.7482 110.107 53.6534 109.849C55.5586 109.591 57.3735 108.877 58.9439 107.768C60.5143 106.659 61.794 105.188 62.6742 103.478C63.5544 101.769 64.0092 99.8726 64 97.95V96C63.9934 94.4223 64.2993 92.8589 64.9 91.4C65.5007 89.9411 66.3843 88.6156 67.5 87.5C68.6156 86.3843 69.9411 85.5007 71.4 84.9C72.8589 84.2993 74.4223 83.9934 76 84H99.1C101.815 84.0017 104.45 83.083 106.575 81.3939C108.7 79.7047 110.189 77.345 110.8 74.7Z" fill="#15ADFF"/>
<path fill-rule="evenodd" clip-rule="evenodd" d="M63.4621 12.0002C92.0626 11.7293 115.783 34.8962 116 63.5698C116.034 67.6129 115.598 71.6463 114.7 75.5886L110.8 74.7L114.697 75.6C113.883 79.1267 111.897 82.273 109.064 84.5252C106.23 86.7774 102.717 88.0023 99.0974 88L99.1 84V88H99.0974H76L75.9832 88C74.9336 87.9956 73.8935 88.1991 72.923 88.5987C71.9524 88.9983 71.0706 89.5862 70.3284 90.3284C69.5862 91.0706 68.9983 91.9524 68.5987 92.923C68.1991 93.8935 67.9956 94.9336 68 95.9832L68 96V97.9411L68 97.9308L64 97.95H68V97.9411C68.0107 100.504 67.4037 103.031 66.2304 105.31C65.0555 107.591 63.3475 109.555 61.2514 111.036C59.1553 112.516 56.733 113.469 54.19 113.813C51.6514 114.157 49.0674 113.884 46.6567 113.018L46.6662 113.021L48 109.25L46.6443 113.013L46.6567 113.018C35.1413 108.942 25.4282 100.943 19.2207 90.422C13.0115 79.8984 10.7064 67.5244 12.7099 55.4709C14.7135 43.4174 20.8976 32.4544 30.1773 24.5054C39.4571 16.5564 51.2397 12.1291 63.4578 12.0002L63.4621 12.0002ZM106.901 73.8056C107.661 70.4693 108.03 67.056 108 63.6345L108 63.6302C107.817 39.4046 87.7386 19.7719 63.5401 19.9998C53.2024 20.1093 43.2333 23.8554 35.3818 30.5811C27.5297 37.3072 22.2969 46.5836 20.6017 56.7826C18.9064 66.9817 20.8568 77.4521 26.1108 86.3567C31.3647 95.2613 39.5866 102.031 49.3339 105.479L49.3557 105.487C50.559 105.92 51.8492 106.057 53.1167 105.885C54.3842 105.714 55.5916 105.239 56.6364 104.501C57.6811 103.763 58.5324 102.784 59.118 101.647C59.7036 100.51 60.0062 99.2482 60.0001 97.9692L60 97.95V96.008C59.9923 93.9052 60.4006 91.8215 61.2013 89.877C62.0031 87.9298 63.1825 86.1606 64.6716 84.6715C66.1606 83.1825 67.9298 82.003 69.877 81.2012C71.8212 80.4007 73.9045 79.9925 76.007 80H99.1H99.1026C100.912 80.0012 102.669 79.3887 104.086 78.2626C105.501 77.1377 106.493 75.5666 106.901 73.8056ZM64 44C67.3137 44 70 41.3137 70 38C70 34.6863 67.3137 32 64 32C60.6863 32 58 34.6863 58 38C58 41.3137 60.6863 44 64 44ZM47.5 51C47.5 54.3137 44.8137 57 41.5 57C38.1863 57 35.5 54.3137 35.5 51C35.5 47.6863 38.1863 45 41.5 45C44.8137 45 47.5 47.6863 47.5 51ZM41.5 83C44.8137 83 47.5 80.3137 47.5 77C47.5 73.6863 44.8137 71 41.5 71C38.1863 71 35.5 73.6863 35.5 77C35.5 80.3137 38.1863 83 41.5 83ZM92.5 51C92.5 54.3137 89.8137 57 86.5 57C83.1863 57 80.5 54.3137 80.5 51C80.5 47.6863 83.1863 45 86.5 45C89.8137 45 92.5 47.6863 92.5 51Z" fill="#15ADFF"/>
</svg>
