<?xml version="1.0" encoding="iso-8859-1"?>
<!-- Generator: Adobe Illustrator 19.0.0, SVG Export Plug-In . SVG Version: 6.00 Build 0)  -->
<svg version="1.1" id="Layer_1" xmlns="http://www.w3.org/2000/svg" xmlns:xlink="http://www.w3.org/1999/xlink" x="0px" y="0px"
	 viewBox="0 0 512 512" style="enable-background:new 0 0 512 512;" xml:space="preserve">
<circle style="fill:#334D5C;" cx="256" cy="256" r="256"/>
<path style="opacity:0.1;enable-background:new    ;" d="M512,256c0-0.395-0.027-0.784-0.032-1.179L391.664,134.517
	c-4.299-4.821-9.349-9.872-14.16-14.176c-8.24-7.365-15.792-12.544-17.733-10.597l-26.277,26.304l-7.845,7.856l-2.053,2.053
	l-57.44,57.413l-0.181-0.181l-1.509-1.509l0,0l-2.923-2.923l0,0l-1.509-1.509l0,0l-2.928-2.928l-1.509-1.509l0,0l-3.68-3.68
	l-0.752-0.757l0,0l-2.923-2.923l0,0l-1.509-1.509l0,0l-2.773-2.773l0,0l-1.509-1.509l-2.923-2.923l0,0l-1.509-1.509l0,0
	l-2.928-2.928l0,0l-1.509-1.509l-2.923-2.923l-1.509-1.509l0,0l-2.923-2.923l-1.509-1.509l0,0l-2.773-2.773l-1.509-1.509
	l-2.923-2.923l0,0L216,153.211l-2.928-2.928l0,0l-1.509-1.509l0,0l-2.923-2.923l0,0l-1.509-1.509l-2.923-2.923l0,0l-1.509-1.509
	l-2.773-2.773l-1.509-1.509l-16.229-16.229l-1.541-1.531l-8.533-8.533l-62.779,62.779l94.021,94.027l-78.384,78.347
	c-1.184,1.184-1.691,2.843-1.589,4.661c-0.005,0.016-0.016,0.021-0.016,0.037l-8.795,28.72l-5.051,16.32
	c-0.608,1.957,0.304,4.181,1.845,5.861l0,0c0.176,0.192,0.357,0.368,0.549,0.549l108.907,108.907
	C232.331,511.115,244.059,512,256,512C397.387,512,512,397.387,512,256z"/>
<rect x="211.606" y="92.998" transform="matrix(0.7071 -0.7071 0.7071 0.7071 -106.0462 256.0007)" style="fill:#EBF0F3;" width="88.783" height="326.024"/>
<g>
	
		<rect x="286.288" y="250.205" transform="matrix(0.7071 -0.7071 0.7071 0.7071 -95.7004 289.4057)" style="fill:#E1E6E9;" width="30.41" height="20.037"/>
	
		<rect x="244.978" y="291.455" transform="matrix(0.7073 -0.7069 0.7069 0.7073 -136.96 272.1647)" style="fill:#E1E6E9;" width="30.41" height="20.037"/>
	
		<rect x="242.012" y="93.001" transform="matrix(0.7071 -0.7071 0.7071 0.7071 -106.05 255.9992)" style="fill:#E1E6E9;" width="27.962" height="326.024"/>
</g>
<g>
	<ellipse style="fill:#D5D6DB;" cx="161.995" cy="161.995" rx="12.245" ry="12.245"/>
	
		<rect x="174.566" y="120.386" transform="matrix(0.7071 -0.7071 0.7071 0.7071 -33.5776 161.8415)" style="fill:#D5D6DB;" width="8.011" height="2.133"/>
	
		<rect x="179.018" y="124.812" transform="matrix(0.7071 -0.7071 0.7071 0.7071 -35.4037 166.2862)" style="fill:#D5D6DB;" width="8.011" height="2.133"/>
	
		<rect x="183.432" y="129.278" transform="matrix(0.7071 -0.7071 0.7071 0.7071 -37.2683 170.7153)" style="fill:#D5D6DB;" width="8.011" height="2.133"/>
	
		<rect x="187.832" y="133.7" transform="matrix(0.7071 -0.7071 0.7071 0.7071 -39.1067 175.1214)" style="fill:#D5D6DB;" width="8.011" height="2.133"/>
	
		<rect x="187.78" y="140.009" transform="matrix(0.7071 -0.7071 0.7071 0.7071 -42.802 178.8183)" style="fill:#D5D6DB;" width="13.344" height="2.133"/>
	
		<rect x="196.593" y="142.422" transform="matrix(0.7071 -0.7071 0.7071 0.7071 -42.7076 183.871)" style="fill:#D5D6DB;" width="8.011" height="2.133"/>
	
		<rect x="201.041" y="146.839" transform="matrix(0.7071 -0.7071 0.7071 0.7071 -44.5284 188.3105)" style="fill:#D5D6DB;" width="8.011" height="2.133"/>
	
		<rect x="205.44" y="151.282" transform="matrix(0.7071 -0.7071 0.7071 0.7071 -46.3814 192.7222)" style="fill:#D5D6DB;" width="8.011" height="2.133"/>
	
		<rect x="209.855" y="155.737" transform="matrix(0.7071 -0.7071 0.7071 0.7071 -48.239 197.1488)" style="fill:#D5D6DB;" width="8.011" height="2.133"/>
	
		<rect x="209.812" y="162.028" transform="matrix(0.7071 -0.7071 0.7071 0.7071 -51.919 200.8463)" style="fill:#D5D6DB;" width="13.344" height="2.133"/>
	
		<rect x="218.614" y="164.443" transform="matrix(0.7072 -0.707 0.707 0.7072 -51.835 205.8535)" style="fill:#D5D6DB;" width="8.011" height="2.133"/>
	
		<rect x="223.068" y="168.875" transform="matrix(0.7071 -0.7071 0.7071 0.7071 -53.6585 210.34)" style="fill:#D5D6DB;" width="8.011" height="2.133"/>
	
		<rect x="227.464" y="173.292" transform="matrix(0.7071 -0.7071 0.7071 0.7071 -55.4949 214.7418)" style="fill:#D5D6DB;" width="8.011" height="2.133"/>
	
		<rect x="231.897" y="177.729" transform="matrix(0.7071 -0.7071 0.7071 0.7071 -57.3336 219.1761)" style="fill:#D5D6DB;" width="8.011" height="2.133"/>
	
		<rect x="231.835" y="184.05" transform="matrix(0.7071 -0.7071 0.7071 0.7071 -61.04 222.869)" style="fill:#D5D6DB;" width="13.344" height="2.133"/>
	
		<rect x="240.647" y="186.464" transform="matrix(0.7071 -0.7071 0.7071 0.7071 -60.9474 227.9217)" style="fill:#D5D6DB;" width="8.011" height="2.133"/>
	
		<rect x="245.095" y="190.898" transform="matrix(0.7071 -0.7071 0.7071 0.7071 -62.7795 232.3658)" style="fill:#D5D6DB;" width="8.011" height="2.133"/>
	
		<rect x="249.49" y="195.323" transform="matrix(0.7071 -0.7071 0.7071 0.7071 -64.6212 236.7698)" style="fill:#D5D6DB;" width="8.011" height="2.133"/>
	
		<rect x="253.935" y="199.75" transform="matrix(0.7071 -0.7071 0.7071 0.7071 -66.4495 241.2092)" style="fill:#D5D6DB;" width="8.011" height="2.133"/>
	
		<rect x="253.85" y="206.091" transform="matrix(0.7071 -0.7071 0.7071 0.7071 -70.1776 244.8923)" style="fill:#D5D6DB;" width="13.344" height="2.133"/>
	
		<rect x="262.674" y="208.489" transform="matrix(0.7071 -0.7071 0.7071 0.7071 -70.07 249.9482)" style="fill:#D5D6DB;" width="8.011" height="2.133"/>
	
		<rect x="267.126" y="212.919" transform="matrix(0.7071 -0.7071 0.7071 0.7071 -71.8982 254.3938)" style="fill:#D5D6DB;" width="8.011" height="2.133"/>
	
		<rect x="271.518" y="217.356" transform="matrix(0.7071 -0.7071 0.7071 0.7071 -73.7497 258.7987)" style="fill:#D5D6DB;" width="8.011" height="2.133"/>
	
		<rect x="275.962" y="221.772" transform="matrix(0.7071 -0.7071 0.7071 0.7071 -75.5705 263.235)" style="fill:#D5D6DB;" width="8.011" height="2.133"/>
	
		<rect x="275.877" y="228.109" transform="matrix(0.7071 -0.7071 0.7071 0.7071 -79.2948 266.9165)" style="fill:#D5D6DB;" width="13.344" height="2.133"/>
	
		<rect x="284.697" y="230.516" transform="matrix(0.7071 -0.7071 0.7071 0.7071 -79.1947 271.9724)" style="fill:#D5D6DB;" width="8.011" height="2.133"/>
	
		<rect x="289.157" y="234.969" transform="matrix(0.7071 -0.7071 0.7071 0.7071 -81.0374 276.4303)" style="fill:#D5D6DB;" width="8.011" height="2.133"/>
	
		<rect x="293.552" y="239.39" transform="matrix(0.7071 -0.7071 0.7071 0.7071 -82.876 280.8329)" style="fill:#D5D6DB;" width="8.011" height="2.133"/>
	
		<rect x="297.985" y="243.852" transform="matrix(0.7071 -0.7071 0.7071 0.7071 -84.7329 285.2749)" style="fill:#D5D6DB;" width="8.011" height="2.133"/>
	
		<rect x="297.904" y="250.15" transform="matrix(0.7071 -0.7071 0.7071 0.7071 -88.4287 288.9476)" style="fill:#D5D6DB;" width="13.344" height="2.133"/>
	
		<rect x="306.715" y="252.556" transform="matrix(0.7072 -0.707 0.707 0.7072 -88.336 293.9399)" style="fill:#D5D6DB;" width="8.011" height="2.133"/>
	
		<rect x="311.18" y="256.975" transform="matrix(0.7071 -0.7071 0.7071 0.7071 -90.1471 298.4483)" style="fill:#D5D6DB;" width="8.011" height="2.133"/>
	
		<rect x="315.587" y="261.407" transform="matrix(0.7071 -0.7071 0.7071 0.7071 -91.9904 302.8622)" style="fill:#D5D6DB;" width="8.011" height="2.133"/>
	
		<rect x="320.028" y="265.83" transform="matrix(0.7071 -0.7071 0.7071 0.7071 -93.8177 307.2982)" style="fill:#D5D6DB;" width="8.011" height="2.133"/>
	
		<rect x="319.931" y="272.173" transform="matrix(0.7071 -0.7071 0.7071 0.7071 -97.5496 310.9734)" style="fill:#D5D6DB;" width="13.344" height="2.133"/>
	
		<rect x="328.749" y="274.534" transform="matrix(0.707 -0.7072 0.7072 0.707 -97.4119 316.0754)" style="fill:#D5D6DB;" width="8.011" height="2.133"/>
	
		<rect x="333.203" y="278.98" transform="matrix(0.7071 -0.7071 0.7071 0.7071 -99.2568 320.4662)" style="fill:#D5D6DB;" width="8.011" height="2.133"/>
	
		<rect x="337.61" y="283.412" transform="matrix(0.7071 -0.7071 0.7071 0.7071 -101.1001 324.8802)" style="fill:#D5D6DB;" width="8.011" height="2.133"/>
	
		<rect x="342.051" y="287.836" transform="matrix(0.7071 -0.7071 0.7071 0.7071 -102.9274 329.3162)" style="fill:#D5D6DB;" width="8.011" height="2.133"/>
	
		<rect x="341.958" y="294.196" transform="matrix(0.7071 -0.7071 0.7071 0.7071 -106.6706 332.9992)" style="fill:#D5D6DB;" width="13.344" height="2.133"/>
	
		<rect x="350.774" y="296.599" transform="matrix(0.7071 -0.7071 0.7071 0.7071 -106.569 338.0514)" style="fill:#D5D6DB;" width="8.011" height="2.133"/>
	
		<rect x="355.227" y="301.033" transform="matrix(0.7071 -0.7071 0.7071 0.7071 -108.4004 342.4983)" style="fill:#D5D6DB;" width="8.011" height="2.133"/>
	
		<rect x="359.633" y="305.46" transform="matrix(0.7071 -0.7071 0.7071 0.7071 -110.2399 346.9107)" style="fill:#D5D6DB;" width="8.011" height="2.133"/>
	
		<rect x="364.093" y="309.897" transform="matrix(0.7071 -0.7071 0.7071 0.7071 -112.0713 351.3639)" style="fill:#D5D6DB;" width="8.011" height="2.133"/>
	
		<rect x="363.982" y="316.222" transform="matrix(0.7071 -0.7071 0.7071 0.7071 -115.7954 355.0234)" style="fill:#D5D6DB;" width="13.344" height="2.133"/>
	
		<rect x="372.801" y="318.63" transform="matrix(0.7071 -0.7071 0.7071 0.7071 -115.6953 360.0793)" style="fill:#D5D6DB;" width="8.011" height="2.133"/>
	
		<rect x="377.25" y="323.06" transform="matrix(0.7071 -0.7071 0.7071 0.7071 -117.5252 364.5225)" style="fill:#D5D6DB;" width="8.011" height="2.133"/>
	
		<rect x="381.656" y="327.487" transform="matrix(0.7071 -0.7071 0.7071 0.7071 -119.3646 368.9349)" style="fill:#D5D6DB;" width="8.011" height="2.133"/>
	
		<rect x="386.116" y="331.945" transform="matrix(0.7071 -0.7071 0.7071 0.7071 -121.2112 373.3944)" style="fill:#D5D6DB;" width="8.011" height="2.133"/>
	
		<rect x="386.005" y="338.249" transform="matrix(0.7071 -0.7071 0.7071 0.7071 -124.9201 377.0477)" style="fill:#D5D6DB;" width="13.344" height="2.133"/>
	
		<rect x="266.866" y="270.863" transform="matrix(0.7072 -0.707 0.707 0.7072 -116.3549 280.8014)" style="fill:#D5D6DB;" width="27.962" height="20.037"/>
</g>
<path style="fill:#64798A;" d="M115.365,384.24L115.365,384.24c1.819,1.819,4.363,2.096,5.419,0.581l-0.389,0.555
	c-0.917,1.312-0.421,3.477,1.157,5.056c1.579,1.579,3.739,2.075,5.051,1.157l0.555-0.389c-1.509,1.056-1.237,3.6,0.581,5.424l0,0
	c1.259,1.259,2.939,1.835,4.219,1.44l2.539-0.779l0,0l-16.731,5.184c-4.133,1.28-9.525-4.112-8.245-8.251l5.051-16.32l-0.645,2.112
	C113.536,381.301,114.107,382.981,115.365,384.24z"/>
<path style="fill:#F6C358;" d="M340.256,148.672l37.248-28.325c4.816,4.304,9.861,9.355,14.16,14.176l-25.131,42.267
	C361.776,172.096,344.939,153.435,340.256,148.672z"/>
<path style="fill:#DC8744;" d="M127.739,396.629L127.739,396.629c-1.819-1.819-2.091-4.368-0.581-5.424l2.475-1.733l21.205-14.843
	c0.421-0.293,2.245-3.696,2.8-3.701c-1.477,2.96-1.643,10.683,1.707,14.032c2.251,2.251,4.997,3.504,7.456,3.637
	c-0.011,0.005-0.021,0.016-0.037,0.016l-28.261,8.672l-2.539,0.779C130.677,398.459,128.997,397.888,127.739,396.629z"/>
<path style="fill:#F6C358;" d="M140.08,356.325c-0.773,2.896-1.856,11.499,1.099,14.459c2.96,2.96,11.653,1.157,14.544,0.384
	c-0.165,0.363-5.275,3.733-5.616,3.973l-20.48,14.336l-2.475,1.733l-0.555,0.389c-1.307,0.917-3.472,0.421-5.051-1.157
	c-1.579-1.579-2.075-3.744-1.157-5.056l0.389-0.555l0,0l1.728-2.475l14.32-20.496C137.072,361.509,139.717,356.496,140.08,356.325z"
	/>
<path style="fill:#FCD462;" d="M127.019,356.608c3.344,3.349,10.987,2.235,13.941,0.757c-0.005,0.555-2.384,1.995-2.677,2.416
	l-15.771,22.56l-1.728,2.475l0,0c-1.056,1.515-3.6,1.237-5.419-0.581l0,0c-1.259-1.259-1.829-2.944-1.44-4.224l0.645-2.112
	l8.795-28.72c0.005-0.016,0.016-0.021,0.016-0.037C123.52,351.611,124.773,354.357,127.019,356.608z"/>
<path style="fill:#D15241;" d="M153.296,372.837c-0.677,0.677-1.509,1.131-2.437,1.381c-2.891,0.773-6.715-0.469-9.675-3.429
	c-2.96-2.965-4.203-6.789-3.424-9.685c0.251-0.928,0.704-1.765,1.376-2.443L338.128,156.4l17.957,17.973L153.296,372.837z"/>
<path style="fill:#E56353;" d="M139.136,358.661c-0.4,0.4-0.864,0.715-1.36,0.965c-2.955,1.477-7.408,0.331-10.752-3.019
	c-2.251-2.251-3.499-5.003-3.637-7.461c-0.101-1.819,0.405-3.483,1.589-4.661l198.613-198.523l2.053-2.053l14.16,14.176
	L139.136,358.661z"/>
<path style="fill:#DC8744;" d="M391.664,134.517c7.36,8.245,12.533,15.808,10.587,17.749l-27.909,27.936
	c-4.848-4.624-9.627-9.28-14.379-13.963L391.664,134.517z"/>
<path style="fill:#FCD462;" d="M377.504,120.341l-31.744,31.776c-4.677-4.757-9.328-9.541-13.947-14.389l27.957-27.984
	C361.712,107.803,369.264,112.976,377.504,120.341z"/>
<path style="fill:#EBF0F3;" d="M361.6,164.613c4.752,4.677,9.531,9.339,14.379,13.963l2.096-2.101l-9.947,9.952l-14.16-14.176
	l-14.16-14.176l-14.16-14.176l9.947-9.952l-2.096,2.096c4.619,4.853,9.269,9.632,13.947,14.389
	C352.123,155.2,356.843,159.925,361.6,164.613z"/>
<path style="fill:#CE412D;" d="M155.344,384.96c-3.344-3.349-4.491-7.803-3.013-10.763c0.251-0.501,0.565-0.96,0.965-1.365
	l200.672-200.581l14.16,14.176l-2.048,2.053L167.456,387.008c-1.179,1.184-2.843,1.691-4.656,1.589
	C160.341,388.464,157.595,387.211,155.344,384.96z"/>
<g>
</g>
<g>
</g>
<g>
</g>
<g>
</g>
<g>
</g>
<g>
</g>
<g>
</g>
<g>
</g>
<g>
</g>
<g>
</g>
<g>
</g>
<g>
</g>
<g>
</g>
<g>
</g>
<g>
</g>
</svg>
