<?xml version="1.0" encoding="iso-8859-1"?>
<!-- Generator: Adobe Illustrator 19.0.0, SVG Export Plug-In . SVG Version: 6.00 Build 0)  -->
<svg version="1.1" id="Layer_1" xmlns="http://www.w3.org/2000/svg" xmlns:xlink="http://www.w3.org/1999/xlink" x="0px" y="0px"
	 viewBox="0 0 512 512" style="enable-background:new 0 0 512 512;" xml:space="preserve">
<circle style="fill:#EA8953;" cx="256" cy="256" r="256"/>
<path style="opacity:0.1;enable-background:new    ;" d="M497.664,340.475L275.973,118.784l-0.011,0.059
	c-5.835-5.744-12.651-9.509-19.963-9.509l0,0c-21.371,0-38.693,31.723-38.693,53.093v98.651l-85.723,60.005v11.824v8.059
	L298.96,508.341C391.627,492.672,467.333,427.253,497.664,340.475z"/>
<path style="fill:#FCD462;" d="M227.829,340.965c-0.944,2.896-1.467,5.979-1.467,9.184c0,16.373,29.637,52.517,29.637,52.517
	s29.637-36.144,29.637-52.517c0-3.211-0.523-6.293-1.467-9.184H227.829z"/>
<path style="fill:#E56353;" d="M234.853,340.965c-0.709,2.171-1.104,4.485-1.104,6.896c0,12.288,22.245,39.419,22.245,39.419
	s22.245-27.136,22.245-39.419c0-2.411-0.395-4.725-1.104-6.896H234.853z"/>
<g>
	<path style="fill:#FCD462;" d="M240.544,340.965c-0.517,1.589-0.805,3.28-0.805,5.04c0,8.981,16.267,28.821,16.267,28.821
		s16.267-19.835,16.267-28.821c0-1.76-0.288-3.451-0.805-5.04H240.544z"/>
	<path style="fill:#FCD462;" d="M280.96,360.112c-0.352,1.077-0.549,2.229-0.549,3.424c0,6.107,11.056,19.589,11.056,19.589
		s11.056-13.483,11.056-19.589c0-1.195-0.197-2.347-0.549-3.424H280.96z"/>
</g>
<path style="fill:#E56353;" d="M283.584,360.112c-0.261,0.811-0.411,1.675-0.411,2.571c0,4.581,8.299,14.704,8.299,14.704
	s8.299-10.123,8.299-14.704c0-0.901-0.149-1.76-0.411-2.571H283.584z"/>
<g>
	<path style="fill:#FCD462;" d="M285.701,360.112c-0.192,0.592-0.299,1.221-0.299,1.883c0,3.349,6.069,10.752,6.069,10.752
		s6.069-7.403,6.069-10.752c0-0.656-0.107-1.291-0.299-1.883H285.701z"/>
	<path style="fill:#FCD462;" d="M210.021,360.112c-0.352,1.077-0.549,2.229-0.549,3.424c0,6.107,11.056,19.589,11.056,19.589
		s11.056-13.483,11.056-19.589c0-1.195-0.197-2.347-0.549-3.424H210.021z"/>
</g>
<path style="fill:#E56353;" d="M212.64,360.112c-0.267,0.811-0.411,1.675-0.411,2.571c0,4.581,8.299,14.704,8.299,14.704
	s8.299-10.123,8.299-14.704c0-0.901-0.149-1.76-0.411-2.571H212.64z"/>
<path style="fill:#FCD462;" d="M214.763,360.112c-0.192,0.592-0.299,1.221-0.299,1.883c0,3.349,6.069,10.752,6.069,10.752
	s6.069-7.403,6.069-10.752c0-0.656-0.107-1.291-0.299-1.883H214.763z"/>
<path style="fill:#64798A;" d="M256,109.333L256,109.333c-21.371,0-38.693,31.723-38.693,53.093v178.539h77.392V162.427
	C294.693,141.056,277.371,109.333,256,109.333z"/>
<path style="fill:#FFFFFF;" d="M256,167.243L256,167.243c-19.589,0-35.472,23.792-35.472,39.819v133.904h70.939V207.061
	C291.472,191.035,275.589,167.243,256,167.243z"/>
<path style="fill:#EBF0F3;" d="M256,186.437c-13.339,0-25.872,9.253-25.872,20.624v9.6c0-11.371,12.533-20.624,25.872-20.624
	c13.344,0,25.872,9.253,25.872,20.624v-9.6C281.872,195.691,269.339,186.437,256,186.437z"/>
<polygon style="fill:#E1E6E9;" points="380.416,321.083 294.427,260.891 294.427,332.907 380.416,332.907 "/>
<g>
	<rect x="294.4" y="332.907" style="fill:#64798A;" width="85.973" height="8.059"/>
	<rect x="131.584" y="332.907" style="fill:#64798A;" width="85.973" height="8.059"/>
</g>
<polygon style="fill:#E1E6E9;" points="131.584,321.083 131.584,332.907 217.573,332.907 217.573,260.891 "/>
<g>
	<path style="fill:#EBF0F3;" d="M220.528,305.696c-6.443,0-11.659,5.221-11.659,11.659v42.757h23.323v-42.757
		C232.192,310.917,226.971,305.696,220.528,305.696z"/>
	<path style="fill:#EBF0F3;" d="M291.472,305.696c-6.443,0-11.659,5.221-11.659,11.659v42.757h23.323v-42.757
		C303.131,310.917,297.909,305.696,291.472,305.696z"/>
</g>
<g>
</g>
<g>
</g>
<g>
</g>
<g>
</g>
<g>
</g>
<g>
</g>
<g>
</g>
<g>
</g>
<g>
</g>
<g>
</g>
<g>
</g>
<g>
</g>
<g>
</g>
<g>
</g>
<g>
</g>
</svg>
