<svg width="128" height="128" viewBox="0 0 128 128" fill="none" xmlns="http://www.w3.org/2000/svg">
<path opacity="0.2" fill-rule="evenodd" clip-rule="evenodd" d="M106.45 74.2L90.75 55.35C91.35 66.9 88.5 80.35 79.7 95.7L94.7 107.7C95.2334 108.124 95.8661 108.404 96.5381 108.515C97.2102 108.625 97.8994 108.562 98.5404 108.332C99.1813 108.102 99.7529 107.711 100.201 107.198C100.649 106.685 100.958 106.066 101.1 105.4L107.25 77.6C107.398 77.0106 107.403 76.3942 107.264 75.8026C107.125 75.211 106.846 74.6614 106.45 74.2ZM21.25 74.5L36.95 55.7C36.35 67.25 39.2 80.7 48 96L33 108C32.47 108.423 31.841 108.705 31.1721 108.819C30.5032 108.932 29.8165 108.874 29.1765 108.649C28.5365 108.424 27.9642 108.039 27.5135 107.532C27.0628 107.025 26.7484 106.412 26.6 105.75L20.45 77.9C20.3017 77.3106 20.297 76.6942 20.4362 76.1026C20.5754 75.511 20.8545 74.9614 21.25 74.5Z" fill="#15ADFF"/>
<path fill-rule="evenodd" clip-rule="evenodd" d="M58.9735 6.79873C60.3882 5.63195 62.1652 4.99332 64 4.99332C65.8412 4.99332 67.6242 5.63642 69.0413 6.81098C74.0079 10.8558 84.7599 20.8833 90.7083 36.345C92.7237 41.5837 94.1686 47.3997 94.671 53.757L109.808 71.9218C110.609 72.8638 111.174 73.9828 111.457 75.1865C111.738 76.3786 111.734 77.6196 111.446 78.8093L105.306 106.613L105.303 106.625C105.006 107.949 104.378 109.176 103.476 110.19C102.575 111.204 101.43 111.972 100.15 112.422C98.8701 112.872 97.4967 112.989 96.1589 112.762C94.8212 112.535 93.5632 111.972 92.5031 111.125L78.5969 100H49.4031L35.4969 111.125C34.4369 111.972 33.1788 112.535 31.8411 112.762C30.5033 112.989 29.1299 112.872 27.8498 112.422C26.5698 111.972 25.4252 111.204 24.5238 110.19C23.6224 109.176 22.9937 107.949 22.6969 106.625L22.6941 106.613L16.5544 78.8092C16.2663 77.6197 16.2621 76.3786 16.5426 75.1865C16.826 73.982 17.3919 72.8623 18.1933 71.9199L33.0321 54.1512C33.498 47.6294 34.9721 41.6707 37.0526 36.3143C43.0592 20.8497 53.9472 10.8246 58.9735 6.79873ZM86.7941 55.8961C86.758 55.6549 86.7441 55.4115 86.7521 55.169C86.3708 49.2515 85.0548 43.9303 83.2417 39.2175C78.0064 25.6091 68.4514 16.6497 63.9999 13.0226L63.9988 13.0235C59.5126 16.6124 49.8047 25.5788 44.5099 39.2107C42.6233 44.0677 41.2739 49.5728 40.9501 55.7124C40.9498 55.8372 40.9437 55.962 40.9317 56.0865C40.4633 66.3281 42.8526 78.3199 50.3398 92H77.6367C85.0133 78.2361 87.3188 66.1808 86.7941 55.8961ZM103.647 77.0246L94.4534 65.9923C93.4595 74.8456 90.5976 84.5291 85.1166 94.9707L97.4969 104.875L103.644 77.0375L103.647 77.0246ZM33.3413 66.2616L24.3531 77.0246L24.3559 77.0375L30.5031 104.875L42.8609 94.9888C37.3246 84.6503 34.398 75.0505 33.3413 66.2616ZM52 112C52 109.791 53.7909 108 56 108H72C74.2091 108 76 109.791 76 112C76 114.209 74.2091 116 72 116H56C53.7909 116 52 114.209 52 112ZM70 48C70 51.3137 67.3137 54 64 54C60.6863 54 58 51.3137 58 48C58 44.6863 60.6863 42 64 42C67.3137 42 70 44.6863 70 48Z" fill="#15ADFF"/>
</svg>
