<?xml version="1.0" encoding="iso-8859-1"?>
<!-- Generator: Adobe Illustrator 19.0.0, SVG Export Plug-In . SVG Version: 6.00 Build 0)  -->
<svg version="1.1" id="Layer_1" xmlns="http://www.w3.org/2000/svg" xmlns:xlink="http://www.w3.org/1999/xlink" x="0px" y="0px"
	 viewBox="0 0 512 512" style="enable-background:new 0 0 512 512;" xml:space="preserve">
<circle style="fill:#EA8953;" cx="256" cy="256" r="256"/>
<path style="opacity:0.1;enable-background:new    ;" d="M511.664,269.184L354.459,111.979l-0.533-0.533
	c-1.387-1.333-3.253-2.133-5.333-2.133H163.419c-4.373,0-7.893,3.573-7.893,7.893v277.6c0,1.867,0.64,3.573,1.813,4.907l1.333,1.333
	l110.581,110.619C400.112,504.987,505.024,400.053,511.664,269.184z"/>
<path style="fill:#64798A;" d="M348.587,109.333H163.413c-4.352,0-7.883,3.531-7.883,7.883v277.568c0,4.352,3.531,7.883,7.883,7.883
	h185.173c4.352,0,7.883-3.531,7.883-7.883V117.216C356.469,112.864,352.944,109.333,348.587,109.333z"/>
<path style="fill:#3A556A;" d="M193.925,278.571h124.144c7.723,0,14.005-6.283,14.005-14.005V109.333h-5.333v155.232
	c0,4.779-3.888,8.672-8.672,8.672H193.925c-4.779,0-8.672-3.888-8.672-8.672V109.333h-5.333v155.232
	C179.92,272.288,186.203,278.571,193.925,278.571z"/>
<circle style="fill:#EBF0F3;" cx="253.733" cy="312.939" r="13.04"/>
<circle style="fill:#44C4A1;" cx="253.733" cy="336.213" r="4.629"/>
<rect x="193.333" y="126.149" style="fill:#2F4859;" width="125.371" height="42.635"/>
<rect x="195.984" y="128.8" style="fill:#3A556A;" width="120.037" height="37.301"/>
<rect x="193.333" y="189.957" style="fill:#2F4859;" width="125.371" height="42.629"/>
<rect x="195.984" y="192.64" style="fill:#3A556A;" width="120.037" height="37.301"/>
<path style="fill:#D5D6DB;" d="M309.584,175.467h-19.536c-0.651,0-1.179,0.528-1.179,1.184v6.283c0,0.651,0.528,1.184,1.179,1.184
	h19.536c0.651,0,1.184-0.528,1.184-1.184v-6.283C310.768,176,310.24,175.467,309.584,175.467z"/>
<path style="fill:#EBF0F3;" d="M309.584,173.104h-19.536c-0.651,0-1.179,0.528-1.179,1.184v6.283c0,0.656,0.528,1.184,1.179,1.184
	h19.536c0.651,0,1.184-0.528,1.184-1.184v-6.283C310.768,173.632,310.24,173.104,309.584,173.104z"/>
<path style="fill:#D5D6DB;" d="M309.584,239.467h-19.536c-0.651,0-1.179,0.528-1.179,1.184v6.283c0,0.651,0.528,1.184,1.179,1.184
	h19.536c0.651,0,1.184-0.528,1.184-1.184v-6.283C310.768,240,310.24,239.467,309.584,239.467z"/>
<path style="fill:#EBF0F3;" d="M309.584,237.104h-19.536c-0.651,0-1.179,0.528-1.179,1.184v6.283c0,0.656,0.528,1.184,1.179,1.184
	h19.536c0.651,0,1.184-0.528,1.184-1.184v-6.283C310.768,237.632,310.24,237.104,309.584,237.104z"/>
<g>
</g>
<g>
</g>
<g>
</g>
<g>
</g>
<g>
</g>
<g>
</g>
<g>
</g>
<g>
</g>
<g>
</g>
<g>
</g>
<g>
</g>
<g>
</g>
<g>
</g>
<g>
</g>
<g>
</g>
</svg>
