<svg width="128" height="128" viewBox="0 0 128 128" fill="none" xmlns="http://www.w3.org/2000/svg">
<path opacity="0.2" fill-rule="evenodd" clip-rule="evenodd" d="M24 24H48V48H24V24ZM80 80H104V104H80V80Z" fill="#15ADFF"/>
<path fill-rule="evenodd" clip-rule="evenodd" d="M24 20C21.7909 20 20 21.7909 20 24V48C20 50.2091 21.7909 52 24 52H32L32 76H24C21.7909 76 20 77.7909 20 80V104C20 106.209 21.7909 108 24 108H48C50.2091 108 52 106.209 52 104V96H76V104C76 106.209 77.7909 108 80 108H104C106.209 108 108 106.209 108 104V80C108 77.7909 106.209 76 104 76H96V52H104C106.209 52 108 50.2091 108 48V24C108 21.7909 106.209 20 104 20H80C77.7909 20 76 21.7909 76 24V32H52V24C52 21.7909 50.2091 20 48 20H24ZM76 88H52V80C52 77.7909 50.2091 76 48 76H40L40 52H48C50.2091 52 52 50.2091 52 48V40H76V48C76 50.2091 77.7909 52 80 52H88V76H80C77.7909 76 76 77.7909 76 80V88ZM84 92V100H100V84H92H84V92ZM44 92V84H36H28V100H44V92ZM44 28V36V44H36H28V28H44ZM92 44H84V36V28H100V44H92Z" fill="#15ADFF"/>
</svg>
