<?xml version="1.0" encoding="iso-8859-1"?>
<!-- Generator: Adobe Illustrator 19.0.0, SVG Export Plug-In . SVG Version: 6.00 Build 0)  -->
<svg version="1.1" id="Layer_1" xmlns="http://www.w3.org/2000/svg" xmlns:xlink="http://www.w3.org/1999/xlink" x="0px" y="0px"
	 viewBox="0 0 512 512" style="enable-background:new 0 0 512 512;" xml:space="preserve">
<circle style="fill:#EA8953;" cx="256" cy="256" r="256"/>
<path style="opacity:0.1;enable-background:new    ;" d="M511.083,276.869L392.272,158.096l-0.107-0.107
	c-1.12-1.173-2.72-1.92-4.48-1.92H249.552l-18.133-18.133c-1.28-1.813-3.733-2.293-5.6-1.013l-27.893,19.147h-0.96l-45.12-45.12
	c-1.333-1.76-3.84-2.133-5.6-0.8c-1.76,1.333-2.133,3.84-0.8,5.6l30.347,40.32h-51.467c-3.467,0-6.24,2.827-6.24,6.24v169.547
	c0,3.467,2.773,6.24,6.24,6.24h-12.533c-1.333,0-2.453,1.12-2.453,2.453v11.627c0,0.533,0.213,1.067,0.587,1.493h-0.053
	l29.227,29.227l-4.373,7.84c-2.133,3.84-0.8,8.747,3.093,10.933l110.128,110.128c2.683,0.085,5.355,0.203,8.053,0.203
	C390.352,512,500.453,408.48,511.083,276.869z"/>
<g>
	<path style="fill:#3A556A;" d="M134.736,390.752c-2.165,3.851-0.795,8.731,3.056,10.891c1.243,0.699,2.581,1.024,3.909,1.024
		c2.795,0,5.509-1.467,6.981-4.085l24.688-43.952h-18.347L134.736,390.752z"/>
	<path style="fill:#3A556A;" d="M363.317,398.581c1.467,2.613,4.181,4.085,6.981,4.085c1.328,0,2.672-0.331,3.909-1.024
		c3.856-2.16,5.221-7.04,3.056-10.891l-20.293-36.117h-18.347L363.317,398.581z"/>
</g>
<g>
	<path style="fill:#64798A;" d="M230.373,143.499c1.824-1.248,2.283-3.744,1.029-5.563c-1.248-1.819-3.733-2.272-5.563-1.029
		l-27.904,19.184h14.123L230.373,143.499z"/>
	<path style="fill:#64798A;" d="M151.845,110.933c-1.323-1.76-3.829-2.128-5.6-0.795c-1.765,1.328-2.128,3.835-0.795,5.6
		l30.325,40.352h10.011L151.845,110.933z"/>
</g>
<path style="fill:#EBF0F3;" d="M387.691,338.085c3.445,0,6.235-2.789,6.235-6.235V162.325c0-3.445-2.795-6.235-6.235-6.235H212.059
	h-14.123h-12.149h-10.011h-51.467c-3.445,0-6.235,2.795-6.235,6.235v169.531c0,3.445,2.795,6.235,6.235,6.235h263.381V338.085z
	 M358.064,220.149c8.832,0,15.995,7.157,15.995,15.995c0,8.832-7.163,15.995-15.995,15.995c-8.832,0-15.989-7.163-15.989-15.995
	C342.075,227.312,349.232,220.149,358.064,220.149z M358.064,272.827c8.832,0,15.995,7.163,15.995,15.995
	c0,8.832-7.163,15.995-15.995,15.995c-8.832,0-15.989-7.157-15.989-15.995C342.075,279.989,349.232,272.827,358.064,272.827z
	 M134.069,172.091h94.037h94.037v150H134.069V172.091z"/>
<polygon style="fill:#64798A;" points="322.144,172.091 228.107,172.091 322.144,322.091 "/>
<polygon style="fill:#3A556A;" points="228.107,172.091 134.069,172.091 134.069,322.091 322.144,322.091 "/>
<g>
	<path style="fill:#64798A;" d="M400.187,338.085h-12.496H124.309h-12.496c-1.371,0-2.48,1.109-2.48,2.48v11.584
		c0,1.371,1.109,2.48,2.48,2.48h43.211h18.347h165.253h18.347h43.216c1.371,0,2.48-1.109,2.48-2.48v-11.584
		C402.667,339.2,401.557,338.085,400.187,338.085z"/>
	<circle style="fill:#64798A;" cx="358.08" cy="236.16" r="15.995"/>
	<circle style="fill:#64798A;" cx="358.08" cy="288.8" r="15.995"/>
</g>
<path style="fill:#EBF0F3;" d="M234.667,192.976c-4.624,0-8.373,3.749-8.373,8.373v102.181h0.123
	c0.587-4.053,4.037-7.179,8.256-7.179h58.144V192.976H234.667z"/>
<path style="fill:#FFFFFF;" d="M217.915,192.976c4.624,0,8.373,3.749,8.373,8.373v102.181h-0.123
	c-0.587-4.053-4.037-7.179-8.256-7.179h-58.139V192.976H217.915z"/>
<g>
	<rect x="166.4" y="207.525" style="fill:#EBF0F3;" width="53.264" height="2.811"/>
	<rect x="166.4" y="221.328" style="fill:#EBF0F3;" width="53.264" height="2.805"/>
	<rect x="166.4" y="235.147" style="fill:#EBF0F3;" width="53.264" height="2.805"/>
	<rect x="166.4" y="248.928" style="fill:#EBF0F3;" width="53.264" height="2.805"/>
	<rect x="166.4" y="262.72" style="fill:#EBF0F3;" width="53.264" height="2.805"/>
	<rect x="166.4" y="276.528" style="fill:#EBF0F3;" width="53.264" height="2.811"/>
</g>
<g>
	<rect x="232.917" y="207.525" style="fill:#D5D6DB;" width="53.264" height="2.811"/>
	<rect x="232.917" y="221.328" style="fill:#D5D6DB;" width="53.264" height="2.805"/>
	<rect x="232.917" y="235.147" style="fill:#D5D6DB;" width="53.264" height="2.805"/>
	<rect x="232.917" y="248.928" style="fill:#D5D6DB;" width="53.264" height="2.805"/>
	<rect x="232.917" y="262.72" style="fill:#D5D6DB;" width="53.264" height="2.805"/>
	<rect x="232.917" y="276.528" style="fill:#D5D6DB;" width="53.264" height="2.811"/>
</g>
<g>
</g>
<g>
</g>
<g>
</g>
<g>
</g>
<g>
</g>
<g>
</g>
<g>
</g>
<g>
</g>
<g>
</g>
<g>
</g>
<g>
</g>
<g>
</g>
<g>
</g>
<g>
</g>
<g>
</g>
</svg>
